<?xml version="1.0" standalone="no"?>
<!DOCTYPE svg PUBLIC "-//W3C//DTD SVG 20010904//EN"
 "http://www.w3.org/TR/2001/REC-SVG-20010904/DTD/svg10.dtd">
<svg version="1.0" xmlns="http://www.w3.org/2000/svg"
 width="304.000000pt" height="250.000000pt" viewBox="0 0 304.000000 250.000000"
 preserveAspectRatio="xMidYMid meet">

<g transform="translate(0.000000,250.000000) scale(0.100000,-0.100000)"
fill="#000000" stroke="none">
<path d="M1555 1223 c-28 -7 -46 -24 -144 -137 l-86 -100 -10 71 c-12 79 -25
100 -72 120 -66 27 -144 9 -163 -37 -9 -23 -8 -47 9 -127 17 -84 33 -209 57
-441 4 -40 13 -62 34 -85 25 -29 33 -31 90 -32 55 0 64 3 86 28 23 27 24 33
18 113 -4 46 -4 84 -1 84 4 0 52 -40 107 -90 55 -49 114 -97 132 -106 40 -21
102 -13 134 17 50 47 30 83 -125 220 -69 62 -128 116 -129 121 -2 5 41 64 95
131 55 67 105 132 111 144 21 39 15 71 -17 87 -33 18 -97 27 -126 19z"/>
<path d="M2068 1219 c-99 -14 -155 -56 -200 -147 -29 -58 -33 -77 -36 -167 -5
-118 7 -188 47 -272 34 -72 88 -128 150 -157 38 -17 63 -21 141 -20 142 3 240
46 280 124 26 50 25 75 -1 101 -18 18 -30 21 -93 17 -76 -3 -70 0 -171 -82
-45 -36 -85 -5 -105 80 l-7 32 61 6 c91 10 149 32 201 78 52 46 70 76 85 144
41 183 -114 299 -352 263z m147 -124 c53 -52 23 -165 -54 -204 -43 -22 -111
-37 -111 -25 1 39 23 151 36 184 27 67 87 88 129 45z"/>
</g>
</svg>
